<?xml version="1.0" encoding="utf-8"?>
<!-- Generator: Adobe Illustrator 25.4.1, SVG Export Plug-In . SVG Version: 6.00 Build 0)  -->
<svg version="1.1" id="Layer_1" xmlns="http://www.w3.org/2000/svg" xmlns:xlink="http://www.w3.org/1999/xlink" x="0px" y="0px"
	 viewBox="0 0 208 104" style="enable-background:new 0 0 208 104;" xml:space="preserve">
<style type="text/css">
	.st0{fill:#E42327;}
	.st1{fill:#A4302D;}
	.st2{fill:#923F1F;}
	.st3{fill:none;stroke:#000000;stroke-miterlimit:10;}
</style>
<g>
	<g>
		<polygon class="st0" points="27.4,34.1 29.1,34.8 29.1,34.9 32.4,36.2 32.4,37.5 29.2,36.2 29.2,44 29.1,44 29.1,43.9 27.4,43.2 
					"/>
		<polygon class="st0" points="29.8,37 31.5,37.7 31.6,37.8 33.4,38.6 33.4,39.5 31.7,38.7 31.7,46.1 31.6,46 31.5,46 29.8,45.2 		
			"/>
		<polygon class="st0" points="32.2,39.6 34.1,40.4 34.1,48.6 32.2,47.8 		"/>
		<polygon class="st1" points="41.4,34.1 39.7,34.8 39.6,34.9 36.4,36.2 36.4,37.5 39.5,36.2 39.5,44 39.6,44 39.7,43.9 41.4,43.2 
					"/>
		<polygon class="st1" points="38.9,37 37.3,37.7 37.2,37.8 35.3,38.6 35.3,39.5 37.1,38.7 37.1,46.1 37.2,46 37.3,46 38.9,45.2 		
			"/>
		<polygon class="st1" points="36.6,39.6 34.6,40.4 34.6,48.6 36.6,47.8 		"/>
		<path d="M60.2,72.1h-4.5v-4.8h0.5v3.9c0,0.1,0.1,0.2,0.1,0.2c0.1,0.1,0.1,0.1,0.2,0.1h3.7L60.2,72.1L60.2,72.1z M52.2,70.1l-1-1.8
			c-0.1-0.1-0.1-0.1-0.2-0.1c-0.1,0-0.1,0.1-0.2,0.1l-1,1.9c-0.1,0.1-0.1,0.2,0,0.2c0.1,0.1,0.1,0.1,0.2,0.1H52
			c0.1,0,0.2-0.1,0.2-0.1C52.3,70.2,52.3,70.1,52.2,70.1L52.2,70.1z M54,72.1h-0.7c-0.1-0.1-0.2-0.4-0.4-0.8
			c-0.1-0.2-0.2-0.3-0.4-0.3h-2.7c-0.2,0-0.4,0.1-0.4,0.3l-0.5,0.8h-0.7l2.5-4.7h0.9C51.6,67.4,52.5,68.9,54,72.1z M46.7,70.8
			c0,0.4-0.1,0.7-0.4,1c-0.2,0.3-0.5,0.4-0.9,0.4h-3.9v-0.6h3.9c0.2,0,0.4-0.1,0.5-0.2c0.1-0.1,0.2-0.4,0.2-0.5
			c0-0.2-0.1-0.4-0.2-0.5c-0.1-0.1-0.4-0.2-0.5-0.2h-2.5c-0.4,0-0.7-0.2-0.9-0.4c-0.2-0.3-0.4-0.6-0.4-1s0.1-0.7,0.4-1
			c0.2-0.3,0.5-0.4,0.9-0.4h3.6V68h-3.6c-0.2,0-0.4,0.1-0.5,0.2c-0.1,0.1-0.2,0.4-0.2,0.5c0,0.2,0.1,0.4,0.2,0.5
			c0.1,0.1,0.4,0.2,0.5,0.2h2.5c0.4,0,0.7,0.2,0.9,0.4C46.6,70.1,46.7,70.4,46.7,70.8z M39.5,68.8c0-0.5-0.4-0.8-1-0.8h-2.7
			c-0.1,0-0.2,0.1-0.2,0.1c-0.1,0.1-0.1,0.2-0.1,0.2v1c0,0.1,0,0.2,0.1,0.2s0.1,0.1,0.2,0.1h2.7C39.1,69.6,39.5,69.4,39.5,68.8z
			 M40.1,72.1h-0.8l-1.5-1.6c-0.1-0.2-0.4-0.2-0.5-0.2h-1.5c-0.1,0-0.2,0.1-0.2,0.1c-0.1,0.1-0.1,0.1-0.1,0.2v1.6h-0.6v-4.8h3.7
			c0.4,0,0.8,0.1,1.1,0.4c0.3,0.3,0.4,0.7,0.4,1c0.1,0.7-0.4,1.3-1.2,1.4c-0.1,0-0.1,0-0.2,0c-0.1,0-0.1,0.1-0.1,0.2l0,0
			c0,0.1,0,0.1,0.1,0.1L40.1,72.1z M33.4,72.1h-4.8v-4.8h4.8v0.6h-3.9c-0.1,0-0.2,0.1-0.2,0.1c-0.1,0.1-0.1,0.1-0.1,0.2v0.8
			c0,0.1,0.1,0.2,0.1,0.2c0.1,0.1,0.1,0.1,0.2,0.1h3.3v0.7h-3.3c-0.1,0-0.2,0.1-0.2,0.1c-0.1,0.1-0.1,0.2-0.1,0.2v0.8
			c0,0.1,0.1,0.2,0.1,0.2c0.1,0.1,0.1,0.1,0.2,0.1h3.9V72.1z M27.1,67.3l-2.2,4.8h-1.2l-2.2-4.8H22l1.8,3.9c0.1,0.2,0.4,0.3,0.5,0.2
			c0.1-0.1,0.2-0.1,0.2-0.2l1.8-3.9C26.5,67.3,27.1,67.3,27.1,67.3z M19.7,72.1h-0.6v-4.8h0.6V72.1z M17.6,72.1h-0.8l-3.5-3.9
			l-0.1-0.1c-0.1,0-0.1,0.1-0.1,0.1l0,0v3.9h-0.6v-4.8h0.8c0.4,0.4,1.6,1.8,3.5,3.9c0,0,0.1,0.1,0.1,0.1s0.1-0.1,0.1-0.1v-3.8h0.6
			V72.1z M10.9,70.8c0,0.4-0.1,0.7-0.4,1c-0.2,0.3-0.5,0.4-0.9,0.4H7.1c-0.4,0-0.7-0.1-0.9-0.4c-0.2-0.3-0.4-0.6-0.4-1v-3.4h0.5v3.4
			c0,0.2,0.1,0.4,0.2,0.5c0.1,0.2,0.4,0.2,0.5,0.2h2.5c0.2,0,0.4-0.1,0.5-0.2c0.1-0.1,0.2-0.4,0.2-0.5v-3.4h0.5
			C10.9,67.4,10.9,70.8,10.9,70.8z"/>
		<polygon points="58.2,52.4 58.2,52 60.2,52 60.2,52.4 59.5,52.4 59.5,54.7 58.9,54.7 58.9,52.4 		"/>
		<polygon points="61.3,52 61.9,53.4 62.5,52 63.2,52 63.2,54.7 62.7,54.7 62.7,52.5 62.1,54.2 61.7,54.2 61.1,52.5 61.1,54.7 
			60.6,54.7 60.6,52 		"/>
		<path d="M7.1,58.7c-0.1,0-0.1,0-0.2-0.1c-0.1-0.1-0.1-0.1-0.1-0.2v-1.5c0-0.1,0-0.2,0.1-0.2c0.1-0.1,0.1-0.1,0.2-0.1h3.9
			c0.7,0,1.3,0.2,1.3,1.1c0,0.8-0.5,1-1.2,1H7.1z M11.4,60L11.4,60L11.4,60c1.3-0.2,2.2-0.9,2.2-2.4c0.1-0.7-0.2-1.3-0.7-1.8
			c-0.5-0.4-1.1-0.7-1.8-0.6H5.6v7.5h1.3v-2.5C6.9,60.2,7,60,7.2,60l0,0h2.1c0.2,0,0.4,0.1,0.6,0.3l2.2,2.5h1.7L11.4,60L11.4,60z"/>
		<path d="M31.6,58.1c0,0.1,0,0.2-0.1,0.2c-0.1,0.1-0.1,0.1-0.2,0.1h-5c-0.1,0-0.1,0-0.2-0.1c-0.1-0.1-0.1-0.1-0.1-0.2v-2.8h-1.3
			v7.6h1.3V60c0-0.1,0-0.2,0.1-0.2c0.1-0.1,0.1-0.1,0.2-0.1h5c0.1,0,0.1,0,0.2,0.1c0.1,0.1,0.1,0.1,0.1,0.2v2.8h1.3v-7.6h-1.3
			C31.6,55.2,31.6,58.1,31.6,58.1z"/>
		<path d="M56.8,59.7c0,0.1-0.1,0.1-0.1,0.1h-2.5c-0.1,0-0.1,0-0.1-0.1c0-0.1,0-0.1,0-0.1l1.3-2.8c0-0.1,0.1-0.1,0.1-0.1
			c0.1,0,0.1,0,0.1,0.1l1.3,2.8C56.8,59.7,56.8,59.7,56.8,59.7 M60,62.5c-0.9-1.8-1.9-3.6-2.8-5.3c-0.1-0.1-0.1-0.2-0.2-0.4
			l-0.8-1.6h-1.3l-0.1,0.1c-1.2,2.4-2.5,4.8-3.7,7.2l-0.2,0.3h1.6l0.7-1.3c0.1-0.2,0.3-0.3,0.4-0.3h3.8c0.2,0,0.4,0.1,0.4,0.3
			c0.2,0.4,0.4,0.8,0.6,1.2l0.1,0.1h1.7L60,62.5z"/>
		<path d="M33.9,62.8h7.5v-1.3h-6c-0.1,0-0.2-0.1-0.2-0.1c-0.1-0.1-0.1-0.1-0.1-0.2v-1.2c0-0.2,0.1-0.3,0.3-0.3l0,0h5v-1.3h-5
			c-0.1,0-0.2,0-0.2-0.1c-0.1-0.1-0.1-0.1-0.1-0.2v-1.2c0-0.1,0-0.2,0.1-0.2c0.1-0.1,0.1-0.1,0.2-0.1h5.9v-1.3h-7.5V62.8z"/>
		<path d="M47.1,56.6h1.5c0.1,0,0.2,0,0.2,0.1c0.1,0.1,0.1,0.1,0.1,0.2v3.8c0,0.2-0.1,0.4-0.3,0.6s-0.4,0.3-0.6,0.3h-3.8
			c-0.2,0-0.4-0.1-0.6-0.3s-0.3-0.4-0.3-0.7v-1.3H42v1.3c0,0.6,0.2,1.2,0.6,1.6s1,0.7,1.6,0.7h3.7c0.5,0,1.1-0.2,1.5-0.7
			c0.4-0.4,0.6-1,0.6-1.6v-5.3h-3.1v1.4L47.1,56.6L47.1,56.6z"/>
		<path d="M20.5,59.7c0,0.1-0.1,0.1-0.1,0.1h-2.5c-0.1,0-0.1,0-0.1-0.1c0-0.1,0-0.1,0-0.1l1.3-2.8c0-0.1,0.1-0.1,0.1-0.1
			c0,0,0,0,0.1,0.1l1.3,2.8C20.6,59.7,20.6,59.7,20.5,59.7 M23.7,62.5c-0.9-1.8-1.9-3.6-2.8-5.3l-0.2-0.3l-0.8-1.6h-1.3l-0.1,0.1
			l-3.7,7.2l-0.2,0.3h1.6l0.7-1.3c0.1-0.2,0.3-0.3,0.4-0.3h3.8c0.2,0,0.4,0.1,0.4,0.3c0.2,0.4,0.4,0.8,0.6,1.2l0.1,0.1h1.7
			L23.7,62.5z"/>
	</g>
	<g>
		<path class="st2" d="M106.4,39c0,0.4,0.1,0.8,0.3,1.3c0.2,0.4,0.5,0.7,0.8,0.8c0.4,0.2,0.8,0.4,1.2,0.5c0.4,0.1,0.9,0.3,1.4,0.4
			c0.7,0.1,1.3,0.4,2,0.5c0.7,0.2,1.2,0.5,1.8,0.8c0.5,0.4,0.9,0.8,1.2,1.3c0.4,0.7,0.5,1.4,0.5,2.2s-0.1,1.6-0.5,2.4
			c-0.4,0.7-0.8,1.2-1.4,1.6c-0.7,0.4-1.3,0.8-2.1,0.9c-0.8,0.2-1.8,0.3-2.7,0.3c-0.4,0-0.9,0-1.3-0.1c-0.4-0.1-0.9-0.1-1.3-0.2
			c-0.4-0.1-0.8-0.2-1.2-0.4c-0.3-0.1-0.5-0.2-0.8-0.4v-1.9c0.4,0.1,0.7,0.3,1.1,0.4c0.4,0.1,0.8,0.2,1.2,0.4
			c0.4,0.1,0.8,0.1,1.3,0.2c0.4,0.1,0.8,0.1,1.2,0.1c0.5,0,1.2-0.1,1.7-0.1c0.5-0.1,1-0.3,1.4-0.5c0.4-0.2,0.8-0.5,1-1
			c0.3-0.5,0.4-1,0.4-1.6c0-0.4-0.1-0.9-0.3-1.3c-0.2-0.4-0.5-0.7-0.8-0.8c-0.4-0.2-0.8-0.4-1.2-0.5c-0.4-0.1-0.9-0.3-1.5-0.4
			c-0.7-0.1-1.3-0.4-2-0.5c-0.7-0.2-1.2-0.4-1.7-0.8c-0.5-0.4-0.9-0.8-1.2-1.3c-0.4-0.7-0.5-1.3-0.4-2.1c0-0.8,0.1-1.6,0.5-2.2
			c0.3-0.7,0.8-1.2,1.3-1.6c0.5-0.4,1.2-0.7,1.9-0.9c0.8-0.2,1.5-0.3,2.2-0.3c0.8,0,1.7,0.1,2.5,0.3c0.7,0.1,1.5,0.4,2.2,0.7v2
			c-0.7-0.3-1.5-0.5-2.2-0.8c-0.8-0.2-1.6-0.3-2.5-0.3c-0.5,0-1.2,0.1-1.7,0.2c-0.4,0.1-0.8,0.4-1.2,0.7c-0.3,0.3-0.5,0.5-0.7,1
			C106.5,38.1,106.4,38.6,106.4,39z"/>
		<path class="st2" d="M134.9,43.1c0,1.2-0.2,2.5-0.5,3.6c-0.4,1.1-0.9,2-1.6,2.8c-0.7,0.8-1.6,1.4-2.5,1.8
			c-1.1,0.4-2.2,0.7-3.3,0.7c-1.2,0-2.4-0.2-3.4-0.7c-1-0.4-1.8-1.1-2.5-1.8c-0.7-0.8-1.3-1.8-1.6-2.8c-0.4-1.2-0.5-2.4-0.5-3.6
			c0-1.2,0.2-2.5,0.7-3.6c0.4-1.1,0.9-2,1.6-2.8c0.7-0.8,1.6-1.4,2.5-1.8c1.1-0.4,2.2-0.7,3.3-0.7c1.2,0,2.4,0.2,3.4,0.7
			c1,0.4,1.8,1.1,2.5,1.8c0.7,0.8,1.3,1.8,1.6,2.8C134.7,40.6,134.9,41.8,134.9,43.1z M132.7,43.1c0-1.1-0.1-2.1-0.4-3
			c-0.3-0.8-0.7-1.6-1.3-2.2c-0.5-0.5-1.2-1.1-1.9-1.3c-1.5-0.7-3.2-0.7-4.7,0c-0.7,0.3-1.3,0.8-1.9,1.3c-0.5,0.7-1,1.4-1.3,2.2
			c-0.4,1-0.5,2.1-0.4,3c0,1.1,0.1,2.1,0.5,3c0.3,0.8,0.7,1.6,1.3,2.2c0.5,0.5,1.2,1.1,1.9,1.3s1.6,0.4,2.4,0.4
			c0.8,0,1.6-0.1,2.4-0.4c0.7-0.3,1.3-0.8,1.9-1.3c0.5-0.7,1-1.4,1.3-2.2C132.7,45.2,132.8,44.1,132.7,43.1L132.7,43.1z"/>
		<path class="st2" d="M140.9,34.5v15.3h8.4v1.9h-10.5V34.5H140.9z"/>
		<path class="st2" d="M150.8,51.8l7-17.3h1.8l7.1,17.3h-2.2l-2.1-5.2h-7.2l-2.1,5.2H150.8z M158.7,37.1c-0.8,2.1-1.5,4.1-2.2,5.9
			l-0.7,1.6h5.8l-0.7-1.6C160.2,41.2,159.5,39.2,158.7,37.1L158.7,37.1z"/>
		<path class="st2" d="M171.5,44.5v7.2h-2.1V34.5h4.5c0.8,0,1.4,0,1.9,0.1c0.5,0.1,1,0.1,1.5,0.3c1.1,0.3,2.1,0.8,2.8,1.7
			c0.7,0.8,1,1.9,1,3c0,0.7-0.1,1.3-0.4,1.8c-0.2,0.5-0.5,1-0.9,1.4c-0.4,0.4-0.9,0.8-1.5,1c-0.5,0.3-1.2,0.4-1.9,0.5v0.1l5.2,7.3
			h-2.2l-5.3-7.2L171.5,44.5L171.5,44.5L171.5,44.5z M171.5,36.3v6.3h2.1c0.7,0,1.2,0,1.6-0.1s0.8-0.1,1.2-0.2
			c0.7-0.1,1.3-0.5,1.7-1.1c0.4-0.5,0.7-1.2,0.7-1.9c0-0.7-0.1-1.3-0.5-1.8c-0.4-0.5-0.9-0.8-1.6-1c-0.4-0.1-0.7-0.1-1.2-0.2
			c-0.4-0.1-1,0-1.7,0L171.5,36.3z"/>
		<path class="st2" d="M185,51.8V34.5h2.1v17.3H185z"/>
		<path class="st2" d="M193.2,39c0,0.4,0.1,0.8,0.3,1.3c0.2,0.4,0.5,0.7,0.8,0.8c0.4,0.2,0.8,0.4,1.2,0.5c0.5,0.1,0.9,0.3,1.4,0.4
			c0.7,0.1,1.3,0.4,2,0.5c0.7,0.2,1.2,0.5,1.8,0.8c0.5,0.4,0.9,0.8,1.2,1.3c0.4,0.7,0.5,1.4,0.5,2.2s-0.1,1.6-0.5,2.4
			c-0.4,0.7-0.8,1.2-1.4,1.6c-0.7,0.4-1.3,0.8-2.1,0.9c-0.8,0.2-1.8,0.3-2.7,0.3c-0.5,0-0.9,0-1.3-0.1c-0.4-0.1-0.9-0.1-1.3-0.2
			c-0.4-0.1-0.8-0.2-1.2-0.4c-0.3-0.1-0.5-0.2-0.8-0.4v-1.9c0.4,0.1,0.7,0.3,1.1,0.4c0.4,0.1,0.8,0.2,1.2,0.4s0.8,0.1,1.3,0.2
			c0.4,0.1,0.8,0.1,1.2,0.1c0.5,0,1.2-0.1,1.7-0.1c0.5-0.1,1-0.3,1.4-0.5c0.4-0.2,0.8-0.5,1-1c0.3-0.5,0.4-1,0.4-1.6
			c0-0.4-0.1-0.9-0.4-1.3c-0.2-0.4-0.5-0.7-0.8-0.8c-0.4-0.2-0.8-0.4-1.2-0.5c-0.5-0.1-0.9-0.3-1.5-0.4c-0.7-0.1-1.3-0.4-2-0.5
			c-0.7-0.2-1.2-0.4-1.7-0.8c-0.5-0.4-0.9-0.8-1.2-1.3c-0.4-0.7-0.5-1.3-0.4-2.1c0-0.8,0.1-1.6,0.5-2.2c0.3-0.7,0.8-1.2,1.3-1.6
			c0.5-0.4,1.2-0.7,1.9-0.9c0.8-0.2,1.5-0.3,2.2-0.3c0.8,0,1.7,0.1,2.5,0.3c0.7,0.1,1.5,0.4,2.1,0.7v2c-0.7-0.3-1.4-0.5-2.2-0.8
			c-0.8-0.2-1.6-0.3-2.5-0.3c-0.5,0-1.2,0.1-1.7,0.2c-0.4,0.1-0.8,0.4-1.2,0.7c-0.3,0.3-0.5,0.5-0.7,1
			C193.2,38.1,193.2,38.6,193.2,39z"/>
		<rect x="80.3" y="29.7" class="st2" width="1.1" height="21.9"/>
		<path class="st2" d="M81.4,51.8h-1.2V29.7h1.2V51.8z M80.4,51.6h0.9V29.8h-0.9V51.6z"/>
		<rect x="84.3" y="34.5" class="st2" width="1.1" height="21.9"/>
		<path class="st2" d="M85.4,56.5h-1.2V34.4h1.2V56.5z M84.4,56.3h0.9V34.6h-0.9V56.3z"/>
		<rect x="88.4" y="29.7" class="st2" width="1.1" height="21.9"/>
		<path class="st2" d="M89.5,51.8h-1.2V29.7h1.2V51.8z M88.5,51.6h0.9V29.8h-0.9V51.6z"/>
		<rect x="92.2" y="34.5" class="st2" width="1.1" height="21.9"/>
		<path class="st2" d="M93.3,56.5h-1.2V34.4h1.2V56.5z M92.3,56.3h0.9V34.6h-0.9V56.3z"/>
		<rect x="96.2" y="29.7" class="st2" width="1.1" height="21.9"/>
		<path class="st2" d="M97.3,51.8h-1.2V29.7h1.2V51.8z M96.2,51.6h0.9V29.8h-0.9V51.6z"/>
		<path d="M110.9,71.1c0.1,0.8-0.1,1.6-0.7,2.2c-0.4,0.5-1,0.8-1.6,0.8c-0.3,0-0.5-0.1-0.8-0.1v-0.9c0.2,0.1,0.5,0.2,0.8,0.2
			c0.8,0,1.3-0.8,1.3-2.2v-5.4h0.9L110.9,71.1z"/>
		<path d="M120.9,70.7c0,2.4-1.1,3.5-3.1,3.5s-3-1.2-3-3.3v-5.1h0.9v5c0,1.7,0.7,2.5,2.2,2.5c1.5,0,2.2-0.8,2.1-2.5v-5.1h0.9V70.7z"
			/>
		<path d="M125.6,74.1h-0.9v-8.4h0.9V74.1z"/>
		<path d="M136.3,74.1h-1.2l-4.4-6.7c-0.1-0.1-0.2-0.4-0.3-0.5l0,0c0,0.2,0.1,0.7,0.1,1.2v6.1h-0.9v-8.4h1.2l4.2,6.7
			c0.2,0.3,0.3,0.5,0.4,0.5l0,0c-0.1-0.4-0.1-0.8-0.1-1.2v-5.9h0.9V74.1z"/>
		<path d="M146.7,74.1h-1l-0.9-2.4h-3.5l-0.8,2.4h-1l3.2-8.3h0.9L146.7,74.1z M144.5,70.9l-1.3-3.6c-0.1-0.2-0.1-0.4-0.1-0.5l0,0
			c0,0.2-0.1,0.4-0.1,0.5l-1.3,3.6H144.5z"/>
		<path d="M155.8,73.6c-0.8,0.5-1.8,0.7-2.8,0.7c-1.1,0.1-2.1-0.4-2.8-1.2c-0.8-0.8-1.2-1.9-1.1-3c-0.1-1.2,0.4-2.4,1.2-3.2
			c0.8-0.8,1.9-1.3,3-1.2c0.8,0,1.6,0.1,2.2,0.4v1c-0.7-0.4-1.6-0.7-2.4-0.7c-0.8,0-1.7,0.4-2.4,1c-0.7,0.7-0.9,1.6-0.9,2.5
			c-0.1,0.9,0.2,1.8,0.8,2.5c0.5,0.7,1.4,0.9,2.2,0.9c0.5,0,1.2-0.1,1.7-0.4v-2.4h-1.8v-0.7h2.8L155.8,73.6z"/>
		<path d="M165.9,74.1h-1l-0.9-2.4h-3.5l-0.8,2.4h-1l3.2-8.3h0.9L165.9,74.1z M163.7,70.9l-1.3-3.6c-0.1-0.2-0.1-0.4-0.1-0.5l0,0
			c0,0.2-0.1,0.4-0.1,0.5l-1.3,3.6H163.7z"/>
		<path d="M174.9,74.1h-1.1l-1.4-2.4c-0.2-0.4-0.5-0.7-0.8-1c-0.3-0.1-0.5-0.2-0.8-0.2h-0.8V74H169v-8.3h2.4c0.7,0,1.3,0.2,1.8,0.7
			c0.4,0.4,0.7,1,0.7,1.6c0,1.2-0.7,1.9-1.8,2.2l0,0c0.2,0.1,0.4,0.2,0.7,0.4c0.2,0.3,0.4,0.7,0.7,0.9L174.9,74.1z M169.9,66.6v3
			h1.3c0.4,0,0.9-0.1,1.3-0.4c0.3-0.3,0.5-0.7,0.5-1.2c0-0.4-0.1-0.8-0.4-1.1c-0.4-0.3-0.8-0.4-1.3-0.4
			C171.3,66.6,169.9,66.6,169.9,66.6z"/>
	</g>
	<line class="st3" x1="70.8" y1="31" x2="70.8" y2="73.1"/>
	<line class="st3" x1="84.2" y1="62" x2="197.9" y2="62"/>
</g>
</svg>
